<mxfile host="app.diagrams.net" agent="Mozilla/5.0 (Windows NT 10.0; Win64; x64) AppleWebKit/537.36 (KHTML, like Gecko) Chrome/130.0.0.0 Safari/537.36" version="24.8.3">
  <diagram name="Page-1" id="kVbOvY0kzvKB0wfsz1jx">
    <mxGraphModel dx="1871" dy="837" grid="1" gridSize="10" guides="1" tooltips="1" connect="1" arrows="1" fold="1" page="1" pageScale="1" pageWidth="850" pageHeight="1100" math="0" shadow="0">
      <root>
        <mxCell id="0" />
        <mxCell id="1" parent="0" />
        <mxCell id="qzLOjXp9P222Tj2iOce_-1" value="External Services" style="whiteSpace=wrap;strokeWidth=2;" vertex="1" parent="1">
          <mxGeometry x="20" y="365" width="839" height="99" as="geometry" />
        </mxCell>
        <mxCell id="qzLOjXp9P222Tj2iOce_-2" value="Database Layer" style="whiteSpace=wrap;strokeWidth=2;" vertex="1" parent="1">
          <mxGeometry x="265" y="514" width="268" height="99" as="geometry" />
        </mxCell>
        <mxCell id="qzLOjXp9P222Tj2iOce_-3" value="Data Access Layer" style="whiteSpace=wrap;strokeWidth=2;" vertex="1" parent="1">
          <mxGeometry x="879" y="365" width="1070" height="373" as="geometry" />
        </mxCell>
        <mxCell id="qzLOjXp9P222Tj2iOce_-4" value="Application Layer" style="whiteSpace=wrap;strokeWidth=2;" vertex="1" parent="1">
          <mxGeometry x="67" y="192" width="2012" height="99" as="geometry" />
        </mxCell>
        <mxCell id="qzLOjXp9P222Tj2iOce_-5" value="User Interface Layer" style="whiteSpace=wrap;strokeWidth=2;" vertex="1" parent="1">
          <mxGeometry x="65" y="20" width="1389" height="99" as="geometry" />
        </mxCell>
        <mxCell id="qzLOjXp9P222Tj2iOce_-6" value="Customer Interface" style="whiteSpace=wrap;strokeWidth=2;" vertex="1" parent="1">
          <mxGeometry x="146" y="45" width="198" height="49" as="geometry" />
        </mxCell>
        <mxCell id="qzLOjXp9P222Tj2iOce_-7" value="Employee Interface" style="whiteSpace=wrap;strokeWidth=2;" vertex="1" parent="1">
          <mxGeometry x="1220" y="45" width="200" height="49" as="geometry" />
        </mxCell>
        <mxCell id="qzLOjXp9P222Tj2iOce_-8" value="Admin Interface" style="whiteSpace=wrap;strokeWidth=2;" vertex="1" parent="1">
          <mxGeometry x="698" y="45" width="176" height="49" as="geometry" />
        </mxCell>
        <mxCell id="qzLOjXp9P222Tj2iOce_-9" value="Order Controller" style="whiteSpace=wrap;strokeWidth=2;" vertex="1" parent="1">
          <mxGeometry x="181" y="217" width="179" height="49" as="geometry" />
        </mxCell>
        <mxCell id="qzLOjXp9P222Tj2iOce_-10" value="Inventory Controller" style="whiteSpace=wrap;strokeWidth=2;" vertex="1" parent="1">
          <mxGeometry x="936" y="217" width="206" height="49" as="geometry" />
        </mxCell>
        <mxCell id="qzLOjXp9P222Tj2iOce_-11" value="User Controller" style="whiteSpace=wrap;strokeWidth=2;" vertex="1" parent="1">
          <mxGeometry x="453" y="217" width="170" height="49" as="geometry" />
        </mxCell>
        <mxCell id="qzLOjXp9P222Tj2iOce_-12" value="Return Controller" style="whiteSpace=wrap;strokeWidth=2;" vertex="1" parent="1">
          <mxGeometry x="1859" y="217" width="186" height="49" as="geometry" />
        </mxCell>
        <mxCell id="qzLOjXp9P222Tj2iOce_-13" value="Report Controller" style="whiteSpace=wrap;strokeWidth=2;" vertex="1" parent="1">
          <mxGeometry x="1331" y="217" width="186" height="49" as="geometry" />
        </mxCell>
        <mxCell id="qzLOjXp9P222Tj2iOce_-14" value="Order Data Access" style="whiteSpace=wrap;strokeWidth=2;" vertex="1" parent="1">
          <mxGeometry x="970" y="390" width="190" height="49" as="geometry" />
        </mxCell>
        <mxCell id="qzLOjXp9P222Tj2iOce_-15" value="Inventory Data Access" style="whiteSpace=wrap;strokeWidth=2;" vertex="1" parent="1">
          <mxGeometry x="972" y="663" width="217" height="49" as="geometry" />
        </mxCell>
        <mxCell id="qzLOjXp9P222Tj2iOce_-16" value="User Data Access" style="whiteSpace=wrap;strokeWidth=2;" vertex="1" parent="1">
          <mxGeometry x="1239" y="663" width="181" height="49" as="geometry" />
        </mxCell>
        <mxCell id="qzLOjXp9P222Tj2iOce_-17" value="Return Data Access" style="whiteSpace=wrap;strokeWidth=2;" vertex="1" parent="1">
          <mxGeometry x="1470" y="663" width="197" height="49" as="geometry" />
        </mxCell>
        <mxCell id="qzLOjXp9P222Tj2iOce_-18" value="Report Data Access" style="whiteSpace=wrap;strokeWidth=2;" vertex="1" parent="1">
          <mxGeometry x="1717" y="663" width="197" height="49" as="geometry" />
        </mxCell>
        <mxCell id="qzLOjXp9P222Tj2iOce_-19" value="Database" style="whiteSpace=wrap;strokeWidth=2;" vertex="1" parent="1">
          <mxGeometry x="342" y="539" width="125" height="49" as="geometry" />
        </mxCell>
        <mxCell id="qzLOjXp9P222Tj2iOce_-20" value="Payment Gateway" style="whiteSpace=wrap;strokeWidth=2;" vertex="1" parent="1">
          <mxGeometry x="55" y="390" width="189" height="49" as="geometry" />
        </mxCell>
        <mxCell id="qzLOjXp9P222Tj2iOce_-21" value="Email Notification Service" style="whiteSpace=wrap;strokeWidth=2;" vertex="1" parent="1">
          <mxGeometry x="294" y="390" width="246" height="49" as="geometry" />
        </mxCell>
        <mxCell id="qzLOjXp9P222Tj2iOce_-22" value="Reporting Tool" style="whiteSpace=wrap;strokeWidth=2;" vertex="1" parent="1">
          <mxGeometry x="661" y="390" width="163" height="49" as="geometry" />
        </mxCell>
        <mxCell id="qzLOjXp9P222Tj2iOce_-23" value="Request" style="curved=1;startArrow=none;endArrow=block;exitX=1;exitY=0.98;entryX=1;entryY=0.02;rounded=0;" edge="1" parent="1" source="qzLOjXp9P222Tj2iOce_-6" target="qzLOjXp9P222Tj2iOce_-9">
          <mxGeometry relative="1" as="geometry">
            <Array as="points">
              <mxPoint x="457" y="119" />
              <mxPoint x="457" y="192" />
            </Array>
          </mxGeometry>
        </mxCell>
        <mxCell id="qzLOjXp9P222Tj2iOce_-24" value="Request" style="curved=1;startArrow=none;endArrow=block;exitX=1;exitY=0.84;entryX=0.5;entryY=0.01;rounded=0;" edge="1" parent="1" source="qzLOjXp9P222Tj2iOce_-6" target="qzLOjXp9P222Tj2iOce_-11">
          <mxGeometry relative="1" as="geometry">
            <Array as="points">
              <mxPoint x="538" y="119" />
            </Array>
          </mxGeometry>
        </mxCell>
        <mxCell id="qzLOjXp9P222Tj2iOce_-25" value="Request" style="curved=1;startArrow=none;endArrow=block;exitX=0.31;exitY=1;entryX=0.99;entryY=0.01;rounded=0;" edge="1" parent="1" source="qzLOjXp9P222Tj2iOce_-7" target="qzLOjXp9P222Tj2iOce_-10">
          <mxGeometry relative="1" as="geometry">
            <Array as="points">
              <mxPoint x="1244" y="119" />
              <mxPoint x="1244" y="192" />
            </Array>
          </mxGeometry>
        </mxCell>
        <mxCell id="qzLOjXp9P222Tj2iOce_-26" value="Request" style="curved=1;startArrow=none;endArrow=block;exitX=0;exitY=0.68;entryX=0.5;entryY=0.01;rounded=0;" edge="1" parent="1" source="qzLOjXp9P222Tj2iOce_-8" target="qzLOjXp9P222Tj2iOce_-9">
          <mxGeometry relative="1" as="geometry">
            <Array as="points">
              <mxPoint x="271" y="119" />
            </Array>
          </mxGeometry>
        </mxCell>
        <mxCell id="qzLOjXp9P222Tj2iOce_-27" value="Request" style="curved=1;startArrow=none;endArrow=block;exitX=1;exitY=0.86;entryX=0.5;entryY=0.01;rounded=0;" edge="1" parent="1" source="qzLOjXp9P222Tj2iOce_-8" target="qzLOjXp9P222Tj2iOce_-10">
          <mxGeometry relative="1" as="geometry">
            <Array as="points">
              <mxPoint x="1038" y="119" />
            </Array>
          </mxGeometry>
        </mxCell>
        <mxCell id="qzLOjXp9P222Tj2iOce_-28" value="Request" style="curved=1;startArrow=none;endArrow=block;exitX=1;exitY=0.64;entryX=0.5;entryY=0.01;rounded=0;" edge="1" parent="1" source="qzLOjXp9P222Tj2iOce_-8" target="qzLOjXp9P222Tj2iOce_-13">
          <mxGeometry relative="1" as="geometry">
            <Array as="points">
              <mxPoint x="1424" y="119" />
            </Array>
          </mxGeometry>
        </mxCell>
        <mxCell id="qzLOjXp9P222Tj2iOce_-29" value="" style="curved=1;startArrow=none;endArrow=block;exitX=1;exitY=0.62;entryX=0.5;entryY=0;rounded=0;" edge="1" parent="1" source="qzLOjXp9P222Tj2iOce_-9" target="qzLOjXp9P222Tj2iOce_-14">
          <mxGeometry relative="1" as="geometry">
            <Array as="points">
              <mxPoint x="1065" y="292" />
            </Array>
          </mxGeometry>
        </mxCell>
        <mxCell id="qzLOjXp9P222Tj2iOce_-30" value="" style="curved=1;startArrow=none;endArrow=block;exitX=0.87;exitY=1.01;entryX=0.76;entryY=0;rounded=0;" edge="1" parent="1" source="qzLOjXp9P222Tj2iOce_-10" target="qzLOjXp9P222Tj2iOce_-15">
          <mxGeometry relative="1" as="geometry">
            <Array as="points">
              <mxPoint x="1195" y="292" />
              <mxPoint x="1195" y="638" />
            </Array>
          </mxGeometry>
        </mxCell>
        <mxCell id="qzLOjXp9P222Tj2iOce_-31" value="" style="curved=1;startArrow=none;endArrow=block;exitX=1;exitY=0.61;entryX=0.8;entryY=0;rounded=0;" edge="1" parent="1" source="qzLOjXp9P222Tj2iOce_-11" target="qzLOjXp9P222Tj2iOce_-16">
          <mxGeometry relative="1" as="geometry">
            <Array as="points">
              <mxPoint x="1439" y="292" />
              <mxPoint x="1439" y="638" />
            </Array>
          </mxGeometry>
        </mxCell>
        <mxCell id="qzLOjXp9P222Tj2iOce_-32" value="" style="curved=1;startArrow=none;endArrow=block;exitX=0;exitY=0.86;entryX=0.79;entryY=0;rounded=0;" edge="1" parent="1" source="qzLOjXp9P222Tj2iOce_-12" target="qzLOjXp9P222Tj2iOce_-17">
          <mxGeometry relative="1" as="geometry">
            <Array as="points">
              <mxPoint x="1682" y="292" />
              <mxPoint x="1682" y="638" />
            </Array>
          </mxGeometry>
        </mxCell>
        <mxCell id="qzLOjXp9P222Tj2iOce_-33" value="" style="curved=1;startArrow=none;endArrow=block;exitX=1;exitY=0.74;entryX=0.55;entryY=0;rounded=0;" edge="1" parent="1" source="qzLOjXp9P222Tj2iOce_-13" target="qzLOjXp9P222Tj2iOce_-18">
          <mxGeometry relative="1" as="geometry">
            <Array as="points">
              <mxPoint x="1836" y="292" />
              <mxPoint x="1836" y="638" />
            </Array>
          </mxGeometry>
        </mxCell>
        <mxCell id="qzLOjXp9P222Tj2iOce_-34" value="" style="curved=1;startArrow=none;endArrow=block;exitX=0.64;exitY=1;entryX=1.01;entryY=0.41;rounded=0;" edge="1" parent="1" source="qzLOjXp9P222Tj2iOce_-14" target="qzLOjXp9P222Tj2iOce_-19">
          <mxGeometry relative="1" as="geometry">
            <Array as="points">
              <mxPoint x="1120" y="464" />
              <mxPoint x="1120" y="514" />
            </Array>
          </mxGeometry>
        </mxCell>
        <mxCell id="qzLOjXp9P222Tj2iOce_-35" value="" style="curved=1;startArrow=none;endArrow=block;exitX=0.23;exitY=0;entryX=0.22;entryY=1;rounded=0;" edge="1" parent="1" source="qzLOjXp9P222Tj2iOce_-15" target="qzLOjXp9P222Tj2iOce_-19">
          <mxGeometry relative="1" as="geometry">
            <Array as="points">
              <mxPoint x="961" y="638" />
              <mxPoint x="334" y="613" />
            </Array>
          </mxGeometry>
        </mxCell>
        <mxCell id="qzLOjXp9P222Tj2iOce_-36" value="" style="curved=1;startArrow=none;endArrow=block;exitX=0.19;exitY=0;entryX=0.38;entryY=1;rounded=0;" edge="1" parent="1" source="qzLOjXp9P222Tj2iOce_-16" target="qzLOjXp9P222Tj2iOce_-19">
          <mxGeometry relative="1" as="geometry">
            <Array as="points">
              <mxPoint x="1215" y="638" />
              <mxPoint x="374" y="613" />
            </Array>
          </mxGeometry>
        </mxCell>
        <mxCell id="qzLOjXp9P222Tj2iOce_-37" value="" style="curved=1;startArrow=none;endArrow=block;exitX=0.23;exitY=0;entryX=0.54;entryY=1;rounded=0;" edge="1" parent="1" source="qzLOjXp9P222Tj2iOce_-17" target="qzLOjXp9P222Tj2iOce_-19">
          <mxGeometry relative="1" as="geometry">
            <Array as="points">
              <mxPoint x="1459" y="638" />
              <mxPoint x="414" y="613" />
            </Array>
          </mxGeometry>
        </mxCell>
        <mxCell id="qzLOjXp9P222Tj2iOce_-38" value="" style="curved=1;startArrow=none;endArrow=block;exitX=0.22;exitY=0;entryX=0.7;entryY=1;rounded=0;" edge="1" parent="1" source="qzLOjXp9P222Tj2iOce_-18" target="qzLOjXp9P222Tj2iOce_-19">
          <mxGeometry relative="1" as="geometry">
            <Array as="points">
              <mxPoint x="1702" y="638" />
              <mxPoint x="454" y="613" />
            </Array>
          </mxGeometry>
        </mxCell>
        <mxCell id="qzLOjXp9P222Tj2iOce_-39" value="Transaction" style="curved=1;startArrow=none;endArrow=block;exitX=0.17;exitY=1.01;entryX=0.5;entryY=0;rounded=0;" edge="1" parent="1" source="qzLOjXp9P222Tj2iOce_-9" target="qzLOjXp9P222Tj2iOce_-20">
          <mxGeometry relative="1" as="geometry">
            <Array as="points">
              <mxPoint x="150" y="292" />
            </Array>
          </mxGeometry>
        </mxCell>
        <mxCell id="qzLOjXp9P222Tj2iOce_-40" value="Notification" style="curved=1;startArrow=none;endArrow=block;exitX=0.15;exitY=1.01;entryX=0.5;entryY=0;rounded=0;" edge="1" parent="1" source="qzLOjXp9P222Tj2iOce_-11" target="qzLOjXp9P222Tj2iOce_-21">
          <mxGeometry relative="1" as="geometry">
            <Array as="points">
              <mxPoint x="417" y="292" />
            </Array>
          </mxGeometry>
        </mxCell>
        <mxCell id="qzLOjXp9P222Tj2iOce_-41" value="Generate Report" style="curved=1;startArrow=none;endArrow=block;exitX=0;exitY=0.65;entryX=0.5;entryY=0;rounded=0;" edge="1" parent="1" source="qzLOjXp9P222Tj2iOce_-13" target="qzLOjXp9P222Tj2iOce_-22">
          <mxGeometry relative="1" as="geometry">
            <Array as="points">
              <mxPoint x="743" y="292" />
            </Array>
          </mxGeometry>
        </mxCell>
        <mxCell id="qzLOjXp9P222Tj2iOce_-42" value="" style="curved=1;startArrow=none;endArrow=block;exitX=1.01;exitY=0.4;entryX=0.36;entryY=1;rounded=0;" edge="1" parent="1" source="qzLOjXp9P222Tj2iOce_-19" target="qzLOjXp9P222Tj2iOce_-14">
          <mxGeometry relative="1" as="geometry">
            <Array as="points">
              <mxPoint x="1010" y="514" />
              <mxPoint x="1010" y="464" />
            </Array>
          </mxGeometry>
        </mxCell>
        <mxCell id="qzLOjXp9P222Tj2iOce_-43" value="" style="curved=1;startArrow=none;endArrow=block;exitX=0.3;exitY=1;entryX=0.49;entryY=0;rounded=0;" edge="1" parent="1" source="qzLOjXp9P222Tj2iOce_-19" target="qzLOjXp9P222Tj2iOce_-15">
          <mxGeometry relative="1" as="geometry">
            <Array as="points">
              <mxPoint x="354" y="613" />
              <mxPoint x="1075" y="638" />
            </Array>
          </mxGeometry>
        </mxCell>
        <mxCell id="qzLOjXp9P222Tj2iOce_-44" value="" style="curved=1;startArrow=none;endArrow=block;exitX=0.46;exitY=1;entryX=0.49;entryY=0;rounded=0;" edge="1" parent="1" source="qzLOjXp9P222Tj2iOce_-19" target="qzLOjXp9P222Tj2iOce_-16">
          <mxGeometry relative="1" as="geometry">
            <Array as="points">
              <mxPoint x="394" y="613" />
              <mxPoint x="1325" y="638" />
            </Array>
          </mxGeometry>
        </mxCell>
        <mxCell id="qzLOjXp9P222Tj2iOce_-45" value="" style="curved=1;startArrow=none;endArrow=block;exitX=0.62;exitY=1;entryX=0.51;entryY=0;rounded=0;" edge="1" parent="1" source="qzLOjXp9P222Tj2iOce_-19" target="qzLOjXp9P222Tj2iOce_-17">
          <mxGeometry relative="1" as="geometry">
            <Array as="points">
              <mxPoint x="434" y="613" />
              <mxPoint x="1573" y="638" />
            </Array>
          </mxGeometry>
        </mxCell>
        <mxCell id="qzLOjXp9P222Tj2iOce_-46" value="" style="curved=1;startArrow=none;endArrow=block;exitX=0.78;exitY=1;entryX=0.27;entryY=0;rounded=0;" edge="1" parent="1" source="qzLOjXp9P222Tj2iOce_-19" target="qzLOjXp9P222Tj2iOce_-18">
          <mxGeometry relative="1" as="geometry">
            <Array as="points">
              <mxPoint x="474" y="613" />
              <mxPoint x="1722" y="638" />
            </Array>
          </mxGeometry>
        </mxCell>
      </root>
    </mxGraphModel>
  </diagram>
</mxfile>
